# xmcd CD database file
#
# Track frame offsets:
#	150
#	10762
#	18900
#	32407
#	38490
#	50967
#	64282
#	83387
#	97497
#	115832
#	132842
#	146257
#	157047
#	174197
#	191657
#	207385
#	220385
#	238037
#
# Disc length: 3354 seconds
#
# Revision: 5
# Processed by: cddbd v1.5.2PL0 Copyright (c) Steve Scherf et al.
# Submitted via: CDex 1.70beta2
#
DISCID=f50d1812
DTITLE=Zillertaler Schürzenjäger - Rebellion in den Alpen  [CD 1)
DYEAR=1993
DGENRE=National Folk
TTITLE0=Die Berge sind mein Zuhaus
TTITLE1=Auf der Jodler-Alm
TTITLE2=Grüne Tannen
TTITLE3=Hey-Mann-Polka
TTITLE4=Tirol i bin a Kind von Dir
TTITLE5=Ich lieb die Berge meiner Heimat
TTITLE6=Frag die Zigeunerin
TTITLE7=Ich habe Dir zu danken
TTITLE8=Canada
TTITLE9=Logo Logo
TTITLE10=Ohne Musig geht nix
TTITLE11=Timple Boarischer
TTITLE12=Zillertaler Hochzeitsblues
TTITLE13=Mein Tirol, ich vermisse Dich
TTITLE14=Was dann?
TTITLE15=Die Bajuwaren
TTITLE16=Alles braucht im Leben seine Zeit
TTITLE17=Dahoam is dahoam
EXTD=YEAR: 1993
EXTT0=
EXTT1=
EXTT2=
EXTT3=
EXTT4=
EXTT5=
EXTT6=
EXTT7=
EXTT8=
EXTT9=
EXTT10=
EXTT11=
EXTT12=
EXTT13=
EXTT14=
EXTT15=
EXTT16=
EXTT17=
PLAYORDER=
